<svg width="16" height="16" viewBox="0 0 56 53" fill="none" xmlns="http://www.w3.org/2000/svg">
<g filter="url(#filter0_d_3_15)">
<path d="M20.2856 32.8146H17.3688V27.9531H22.2302L22.7163 29.7762C23.0809 31.3561 21.8656 32.8146 20.2856 32.8146ZM44.1066 36.4606C44.1066 36.4606 29.7654 27.9531 22.2302 27.9531V10.9382C29.2792 10.9382 44.1066 2.43071 44.1066 2.43071V36.4606Z" fill="white"/>
<path d="M10.0769 25.5233C13.4331 25.5233 16.1538 22.8025 16.1538 19.4463C16.1538 16.0901 13.4331 13.3694 10.0769 13.3694C6.72073 13.3694 4 16.0901 4 19.4463C4 22.8025 6.72073 25.5233 10.0769 25.5233Z" fill="#283593"/>
<path d="M47.7538 15.8002H44.1077V23.0925H47.7538C49.82 23.0925 51.4 21.5125 51.4 19.4463C51.4 17.3802 49.82 15.8002 47.7538 15.8002ZM21.7446 42.7817C20.6508 43.5109 18.7062 44.2402 16.1538 44.4833C15.4246 44.6048 14.6954 44.1186 14.4523 43.2679L9.10461 26.6171C9.10461 26.6171 19.8 19.0817 19.8 27.954C19.8 34.6386 21.6231 38.1633 22.4738 39.5002C23.0815 40.3509 23.0815 41.4448 22.4738 42.2956C22.2308 42.5386 21.9877 42.6602 21.7446 42.7817Z" fill="#283593"/>
<path d="M10.0767 27.9531H22.2302V10.9382H10.0767C8.73976 10.9382 7.64594 12.032 7.64594 13.3689V25.5224C7.64594 26.8593 8.73976 27.9531 10.0767 27.9531Z" fill="#E54335"/>
<path d="M45.3219 38.8913C43.985 38.8913 42.8912 37.7975 42.8912 36.4606V2.43071C42.8912 1.09382 43.985 0 45.3219 0C46.6588 0 47.7526 1.09382 47.7526 2.43071V36.4606C47.7526 37.7975 46.6588 38.8913 45.3219 38.8913Z" fill="#E54335"/>
</g>
<defs>
<filter id="filter0_d_3_15" x="0" y="0" width="55.4" height="52.5017" filterUnits="userSpaceOnUse" color-interpolation-filters="sRGB">
<feFlood flood-opacity="0" result="BackgroundImageFix"/>
<feColorMatrix in="SourceAlpha" type="matrix" values="0 0 0 0 0 0 0 0 0 0 0 0 0 0 0 0 0 0 127 0" result="hardAlpha"/>
<feOffset dy="4"/>
<feGaussianBlur stdDeviation="2"/>
<feComposite in2="hardAlpha" operator="out"/>
<feColorMatrix type="matrix" values="0 0 0 0 0 0 0 0 0 0 0 0 0 0 0 0 0 0 0.25 0"/>
<feBlend mode="normal" in2="BackgroundImageFix" result="effect1_dropShadow_3_15"/>
<feBlend mode="normal" in="SourceGraphic" in2="effect1_dropShadow_3_15" result="shape"/>
</filter>
</defs>
</svg>
