<svg width="44" height="44" viewBox="0 0 44 44" fill="none" xmlns="http://www.w3.org/2000/svg">
<mask id="mask0_20_14" style="mask-type:alpha" maskUnits="userSpaceOnUse" x="0" y="0" width="44" height="44">
<rect width="44" height="44" fill="#D9D9D9"/>
</mask>
<g mask="url(#mask0_20_14)">
<path d="M7.33333 36.6667C6.325 36.6667 5.46181 36.3076 4.74375 35.5896C4.0257 34.8715 3.66667 34.0083 3.66667 33V11C3.66667 9.99166 4.0257 9.12847 4.74375 8.41041C5.46181 7.69236 6.325 7.33333 7.33333 7.33333H16.8208C17.3097 7.33333 17.7757 7.42499 18.2188 7.60833C18.6618 7.79166 19.0514 8.05138 19.3875 8.38749L22 11H36.6667C37.675 11 38.5382 11.359 39.2563 12.0771C39.9743 12.7951 40.3333 13.6583 40.3333 14.6667V19.5708C40.3333 20.2125 40.0583 20.6937 39.5083 21.0146C38.9583 21.3354 38.3778 21.3583 37.7667 21.0833C37.0028 20.7778 36.216 20.5486 35.4063 20.3958C34.5965 20.243 33.7944 20.1667 33 20.1667C31.075 20.1667 29.2799 20.5639 27.6146 21.3583C25.9493 22.1528 24.5361 23.2146 23.375 24.5437C22.2139 25.8729 21.3431 27.4083 20.7625 29.15C20.1819 30.8917 20.0139 32.7097 20.2583 34.6042C20.3194 35.1542 20.1819 35.6354 19.8458 36.0479C19.5097 36.4604 19.0819 36.6667 18.5625 36.6667H7.33333ZM33 42.1667C30.4639 42.1667 28.3021 41.2729 26.5146 39.4854C24.7271 37.6979 23.8333 35.5361 23.8333 33C23.8333 30.4639 24.7271 28.3021 26.5146 26.5146C28.3021 24.7271 30.4639 23.8333 33 23.8333C35.5361 23.8333 37.6979 24.7271 39.4854 26.5146C41.2729 28.3021 42.1667 30.4639 42.1667 33C42.1667 35.5361 41.2729 37.6979 39.4854 39.4854C37.6979 41.2729 35.5361 42.1667 33 42.1667ZM30.3875 35.8417C30.7542 36.2083 31.1819 36.3917 31.6708 36.3917C32.1597 36.3917 32.5875 36.2083 32.9542 35.8417L37.0792 31.7625C37.3542 31.4875 37.4917 31.159 37.4917 30.7771C37.4917 30.3951 37.3542 30.0667 37.0792 29.7917C36.8042 29.5167 36.4833 29.3868 36.1167 29.4021C35.75 29.4174 35.4292 29.5472 35.1542 29.7917L31.6708 33.2292L30.8458 32.4042C30.5708 32.1292 30.25 31.9993 29.8833 32.0146C29.5167 32.0299 29.1958 32.175 28.9208 32.45C28.6458 32.725 28.5083 33.0458 28.5083 33.4125C28.5083 33.7792 28.6458 34.1 28.9208 34.375L30.3875 35.8417Z" fill="#FAFAFA"/>
</g>
</svg>
