<svg width="24" height="24" viewBox="0 0 52 52" xmlns="http://www.w3.org/2000/svg">
    <ellipse
        transform="matrix(1,0,0,1,-0.6,0.8)"
        cx="26.6" cy="20.8"
        rx="3" ry="3"
        fill="#ffffff"
    />
    <path
        d="M 26 24.7 C 26.8 24.7 27.6 24.4 28.2 23.8 C 28.8 23.2 29.1 22.5 29.1 21.7 C 29.1 20.8 28.8 20.1 28.2 19.5 C 27.6 18.9 26.8 18.6 26 18.6 C 25.2 18.6 24.4 18.9 23.8 19.5 C 23.2 20.1 22.9 20.8 22.9 21.7 C 22.9 22.5 23.2 23.2 23.8 23.8 C 24.4 24.4 25.2 24.7 26 24.7 Z M 26 41.7 C 21.5 37.9 18.2 34.3 16 31.1 C 13.8 27.8 12.7 24.8 12.7 22 C 12.7 17.8 14 14.5 16.7 12 C 19.4 9.6 22.5 8.3 26 8.3 C 29.5 8.3 32.6 9.6 35.3 12 C 38 14.5 39.3 17.8 39.3 22 C 39.3 24.8 38.2 27.8 36 31.1 C 33.8 34.3 30.5 37.9 26 41.7 Z"
        fill="#e54335"
        stroke="#b31412"
    />
</svg>
